<svg xmlns="http://www.w3.org/2000/svg" width="9675" height="9637" viewBox="0 0 9675.000 9637.000">
  <rect x="0" y="0" width="100%" height="100%" fill="#ffffff"/>
  <polyline points="9651.000,9092.000 544.000,9092.000" fill="none" stroke="#0b1220" stroke-width="1.90" stroke-linecap="round" stroke-linejoin="round" vector-effect="non-scaling-stroke"/>
  <polyline points="544.000,9092.000 544.000,985.000" fill="none" stroke="#0b1220" stroke-width="1.90" stroke-linecap="round" stroke-linejoin="round" vector-effect="non-scaling-stroke"/>
  <polyline points="544.000,985.000 9651.000,985.000" fill="none" stroke="#0b1220" stroke-width="1.90" stroke-linecap="round" stroke-linejoin="round" vector-effect="non-scaling-stroke"/>
  <polyline points="9651.000,985.000 9651.000,9092.000" fill="none" stroke="#0b1220" stroke-width="1.90" stroke-linecap="round" stroke-linejoin="round" vector-effect="non-scaling-stroke"/>
  <polyline points="2365.000,9092.000 2365.000,985.000" fill="none" stroke="#0b1220" stroke-width="1.90" stroke-linecap="round" stroke-linejoin="round" vector-effect="non-scaling-stroke"/>
  <polyline points="4187.000,9092.000 4187.000,985.000" fill="none" stroke="#0b1220" stroke-width="1.90" stroke-linecap="round" stroke-linejoin="round" vector-effect="non-scaling-stroke"/>
  <polyline points="6008.000,9092.000 6008.000,985.000" fill="none" stroke="#0b1220" stroke-width="1.90" stroke-linecap="round" stroke-linejoin="round" vector-effect="non-scaling-stroke"/>
  <polyline points="7830.000,9092.000 7830.000,985.000" fill="none" stroke="#0b1220" stroke-width="1.90" stroke-linecap="round" stroke-linejoin="round" vector-effect="non-scaling-stroke"/>
  <polyline points="544.000,7741.000 9651.000,7741.000" fill="none" stroke="#0b1220" stroke-width="1.90" stroke-linecap="round" stroke-linejoin="round" vector-effect="non-scaling-stroke"/>
  <polyline points="544.000,6390.000 9651.000,6390.000" fill="none" stroke="#0b1220" stroke-width="1.90" stroke-linecap="round" stroke-linejoin="round" vector-effect="non-scaling-stroke"/>
  <polyline points="544.000,5038.000 9651.000,5038.000" fill="none" stroke="#0b1220" stroke-width="1.90" stroke-linecap="round" stroke-linejoin="round" vector-effect="non-scaling-stroke"/>
  <polyline points="544.000,3687.000 9651.000,3687.000" fill="none" stroke="#0b1220" stroke-width="1.90" stroke-linecap="round" stroke-linejoin="round" vector-effect="non-scaling-stroke"/>
  <polyline points="544.000,2336.000 9651.000,2336.000" fill="none" stroke="#0b1220" stroke-width="1.90" stroke-linecap="round" stroke-linejoin="round" vector-effect="non-scaling-stroke"/>
  <polyline points="544.000,2336.000 553.000,2336.000 562.000,2336.000 571.000,2336.000 580.000,2336.000 588.000,2336.000 597.000,2336.000 606.000,2336.000 615.000,2336.000 624.000,2336.000 633.000,2336.000 642.000,2336.000 651.000,2336.000 660.000,2336.000 668.000,2336.000 677.000,2336.000 686.000,2336.000 695.000,2336.000 704.000,2336.000 713.000,2336.000 722.000,2336.000 731.000,2336.000 739.000,2336.000 748.000,2336.000 757.000,2336.000 766.000,2336.000 775.000,2336.000 784.000,2336.000 793.000,2336.000 802.000,2336.000 811.000,2336.000 819.000,2336.000 828.000,2336.000 837.000,2336.000 846.000,2336.000 855.000,2336.000 864.000,2336.000 873.000,2336.000 882.000,2336.000 891.000,2336.000 899.000,2336.000 908.000,2336.000 917.000,2336.000 926.000,2336.000 935.000,2336.000 944.000,2336.000 953.000,2336.000 962.000,2336.000 970.000,2336.000 979.000,2336.000 988.000,2336.000 997.000,2336.000 1006.000,2336.000 1015.000,2336.000 1024.000,2336.000 1033.000,2336.000 1042.000,2336.000 1050.000,2336.000 1059.000,2336.000 1068.000,2336.000 1077.000,2336.000 1086.000,2336.000 1095.000,2336.000 1104.000,2336.000 1113.000,2336.000 1122.000,2336.000 1130.000,2336.000 1139.000,2336.000 1148.000,2336.000 1157.000,2336.000 1166.000,2336.000 1175.000,2336.000 1184.000,2336.000 1193.000,2336.000 1201.000,2336.000 1210.000,2336.000 1219.000,2336.000 1228.000,2336.000 1237.000,2336.000 1246.000,2336.000 1255.000,2336.000 1264.000,2336.000 1273.000,2336.000 1281.000,2336.000 1290.000,2336.000 1299.000,2336.000 1308.000,2336.000 1317.000,2336.000 1326.000,2336.000 1335.000,2336.000 1344.000,2336.000 1353.000,2336.000 1361.000,2336.000 1370.000,2336.000 1379.000,2336.000 1388.000,2336.000 1397.000,2336.000 1406.000,2336.000 1415.000,2336.000 1424.000,2336.000 1432.000,2336.000 1441.000,2336.000 1450.000,2336.000 1459.000,2336.000 1468.000,2336.000 1477.000,2336.000 1486.000,2336.000 1495.000,2336.000 1504.000,2336.000 1512.000,2336.000 1521.000,2336.000 1530.000,2336.000 1539.000,2336.000 1548.000,2336.000 1557.000,2336.000 1566.000,2336.000 1575.000,2336.000 1584.000,2336.000 1592.000,2336.000 1601.000,2336.000 1610.000,2336.000 1619.000,2336.000 1628.000,2336.000 1637.000,2336.000 1646.000,2336.000 1655.000,2336.000 1663.000,2336.000 1672.000,2336.000 1681.000,2336.000 1690.000,2336.000 1699.000,2336.000 1708.000,2336.000 1717.000,2336.000 1726.000,2336.000 1735.000,2336.000 1743.000,2336.000 1752.000,2336.000 1761.000,2336.000 1770.000,2336.000 1779.000,2336.000 1788.000,2336.000 1797.000,2336.000 1806.000,2336.000 1815.000,2336.000 1823.000,2336.000 1832.000,2336.000 1841.000,2336.000 1850.000,2336.000 1859.000,2336.000 1868.000,2336.000 1877.000,2336.000 1886.000,2336.000 1895.000,2336.000 1903.000,2336.000 1912.000,2336.000 1921.000,2336.000 1930.000,2336.000 1939.000,2336.000 1948.000,2336.000 1957.000,2336.000 1966.000,2336.000 1974.000,2336.000 1983.000,2336.000 1992.000,2336.000 2001.000,2336.000 2010.000,2336.000 2019.000,2336.000 2028.000,2336.000 2037.000,2336.000 2046.000,2336.000 2054.000,2336.000 2063.000,2336.000 2072.000,2336.000 2081.000,2336.000 2090.000,2336.000 2099.000,2336.000 2108.000,2336.000 2117.000,2336.000 2126.000,2336.000 2134.000,2336.000 2143.000,2336.000 2152.000,2336.000 2161.000,2336.000 2170.000,2336.000 2179.000,2336.000 2188.000,2336.000 2197.000,2336.000 2205.000,2336.000 2214.000,2336.000 2223.000,2336.000 2232.000,2336.000 2241.000,2336.000 2250.000,2336.000 2259.000,2336.000 2268.000,2336.000 2277.000,2336.000 2285.000,2336.000 2294.000,2336.000 2303.000,2336.000 2312.000,2336.000 2321.000,2336.000 2330.000,2336.000 2339.000,2336.000 2348.000,2336.000 2357.000,2336.000 2365.000,2336.000 2374.000,2336.000 2383.000,2336.000 2392.000,2336.000 2401.000,2336.000 2410.000,2336.000 2419.000,2336.000 2428.000,2336.000 2436.000,2336.000 2445.000,2336.000 2454.000,2336.000 2463.000,2336.000 2472.000,2336.000 2481.000,2336.000 2490.000,2336.000 2499.000,2336.000 2508.000,2336.000 2516.000,2336.000 2525.000,2336.000 2534.000,2336.000 2543.000,2336.000 2552.000,2336.000 2561.000,2336.000 2570.000,2336.000 2579.000,2336.000 2588.000,2336.000 2596.000,2336.000 2605.000,2336.000 2614.000,2336.000 2623.000,2336.000 2632.000,2336.000 2641.000,2336.000 2650.000,2336.000 2659.000,2336.000 2667.000,2336.000 2676.000,2336.000 2685.000,2336.000 2694.000,2336.000 2703.000,2336.000 2712.000,2336.000 2721.000,2336.000 2730.000,2336.000 2739.000,2336.000 2747.000,2336.000 2756.000,2336.000 2765.000,2336.000 2774.000,2336.000 2783.000,2336.000 2792.000,2336.000 2801.000,2336.000 2810.000,2336.000" fill="none" stroke="#0b1220" stroke-width="1.90" stroke-linecap="round" stroke-linejoin="round" vector-effect="non-scaling-stroke"/>
  <polyline points="2810.000,2336.000 2819.000,2336.000 2827.000,2336.000 2836.000,2336.000 2845.000,2336.000 2854.000,2336.000 2863.000,2336.000 2872.000,2336.000 2881.000,2336.000 2890.000,2336.000 2898.000,2336.000 2907.000,2336.000 2916.000,2336.000 2925.000,2336.000 2934.000,2336.000 2943.000,2336.000 2952.000,2336.000 2961.000,2336.000 2970.000,2336.000 2978.000,2336.000 2987.000,2336.000 2996.000,2336.000 3005.000,2336.000 3014.000,2336.000 3023.000,2336.000 3032.000,2336.000 3041.000,2336.000 3050.000,2336.000 3058.000,2336.000 3067.000,2336.000 3076.000,2336.000 3085.000,2336.000 3094.000,2336.000 3103.000,2336.000 3112.000,2336.000 3121.000,2336.000 3129.000,2336.000 3138.000,2336.000 3147.000,2336.000 3156.000,2336.000 3165.000,2336.000 3174.000,2336.000 3183.000,2336.000 3192.000,2336.000 3201.000,2336.000 3209.000,2336.000 3218.000,2336.000 3227.000,2336.000 3236.000,2336.000 3245.000,2336.000 3254.000,2336.000 3263.000,2336.000 3272.000,2336.000 3281.000,2336.000 3289.000,2336.000 3298.000,2336.000 3307.000,2336.000 3316.000,2336.000 3325.000,2336.000 3334.000,2336.000 3343.000,2336.000 3352.000,2336.000 3361.000,2336.000 3369.000,2336.000 3378.000,2336.000 3387.000,2336.000 3396.000,2336.000 3405.000,2336.000 3414.000,2336.000 3423.000,2336.000 3432.000,2336.000 3440.000,2336.000 3449.000,2336.000 3458.000,2336.000 3467.000,2336.000 3476.000,2336.000 3485.000,2336.000 3494.000,2336.000 3503.000,2336.000 3512.000,2336.000 3520.000,2336.000 3529.000,2336.000 3538.000,2336.000 3547.000,2336.000 3556.000,2336.000 3565.000,2336.000 3574.000,2336.000 3583.000,2336.000 3592.000,2336.000 3600.000,2336.000 3609.000,2336.000 3618.000,2336.000 3627.000,2336.000 3636.000,2336.000 3645.000,2336.000 3654.000,2336.000 3663.000,2336.000 3671.000,2336.000 3680.000,2336.000 3689.000,2336.000 3698.000,2336.000 3707.000,2336.000 3716.000,2336.000 3725.000,2336.000 3734.000,2336.000 3743.000,2336.000 3751.000,2336.000 3760.000,2336.000 3769.000,2336.000 3778.000,2336.000 3787.000,2336.000 3796.000,2336.000 3805.000,2336.000 3814.000,2336.000 3823.000,2336.000 3831.000,2336.000 3840.000,2336.000 3849.000,2336.000 3858.000,2336.000 3867.000,2336.000 3876.000,2336.000 3885.000,2336.000 3894.000,2336.000 3902.000,2336.000 3911.000,2336.000 3920.000,2336.000 3929.000,2336.000 3938.000,2336.000 3947.000,2336.000 3956.000,2336.000 3965.000,2336.000 3974.000,2336.000 3982.000,2336.000 3991.000,2336.000 4000.000,2336.000 4009.000,2336.000 4018.000,2336.000 4027.000,2336.000 4036.000,2336.000 4045.000,2336.000 4054.000,2336.000 4062.000,2336.000 4071.000,2336.000 4080.000,2336.000 4089.000,2336.000 4098.000,2336.000 4107.000,2336.000 4116.000,2336.000 4125.000,2336.000 4133.000,2336.000 4142.000,2336.000 4151.000,2336.000 4160.000,2336.000 4169.000,2336.000 4178.000,2336.000 4187.000,2336.000 4196.000,2336.000 4205.000,2336.000 4213.000,2336.000 4222.000,2336.000 4231.000,2336.000 4240.000,2336.000 4249.000,2336.000 4258.000,2336.000 4267.000,2336.000 4276.000,2336.000 4285.000,2336.000 4293.000,2336.000 4302.000,2336.000 4311.000,2336.000 4320.000,2336.000 4329.000,2336.000 4338.000,2336.000 4347.000,2336.000 4356.000,2336.000 4364.000,2336.000 4373.000,2336.000 4382.000,2336.000 4391.000,2336.000 4400.000,2336.000 4409.000,2336.000 4418.000,2336.000 4427.000,2336.000 4436.000,2336.000 4444.000,2336.000 4453.000,2336.000 4462.000,2336.000 4471.000,2336.000 4480.000,2336.000 4489.000,2336.000 4498.000,2336.000 4507.000,2336.000 4516.000,2336.000 4524.000,2336.000 4533.000,2336.000 4542.000,2336.000 4551.000,2336.000 4560.000,2336.000 4569.000,2336.000 4578.000,2336.000 4587.000,2336.000 4596.000,2336.000 4604.000,2336.000 4613.000,2336.000 4622.000,2336.000 4631.000,2336.000 4640.000,2336.000 4649.000,2336.000 4658.000,2336.000 4667.000,2336.000 4675.000,2336.000 4684.000,2336.000 4693.000,2336.000 4702.000,2336.000 4711.000,2336.000 4720.000,2336.000 4729.000,2336.000 4738.000,2336.000 4747.000,2336.000 4755.000,2336.000 4764.000,2336.000 4773.000,2336.000 4782.000,2336.000 4791.000,2336.000 4800.000,2336.000 4809.000,2336.000 4818.000,2336.000 4827.000,2336.000 4835.000,2336.000 4844.000,2336.000 4853.000,2336.000 4862.000,2336.000 4871.000,2336.000 4880.000,2336.000 4889.000,2336.000 4898.000,2336.000 4906.000,2336.000 4915.000,2336.000 4924.000,2336.000 4933.000,2336.000 4942.000,2336.000 4951.000,2336.000 4960.000,2336.000 4969.000,2336.000 4978.000,2336.000 4986.000,2336.000 4995.000,2336.000 5004.000,2336.000 5013.000,2336.000 5022.000,2336.000 5031.000,2336.000 5040.000,2336.000 5049.000,2336.000 5058.000,2336.000 5066.000,2336.000 5075.000,2336.000" fill="none" stroke="#0b1220" stroke-width="1.90" stroke-linecap="round" stroke-linejoin="round" vector-effect="non-scaling-stroke"/>
  <polyline points="5075.000,2336.000 5084.000,2336.000 5093.000,2336.000 5102.000,2336.000 5111.000,2336.000 5120.000,2336.000 5129.000,2336.000 5137.000,2336.000 5146.000,2336.000 5155.000,2336.000 5164.000,2336.000 5173.000,2336.000 5182.000,2336.000 5191.000,2336.000 5200.000,2336.000 5209.000,2336.000 5217.000,2336.000 5226.000,2336.000 5235.000,2336.000 5244.000,2336.000 5253.000,2336.000 5262.000,2336.000 5271.000,2336.000 5280.000,2336.000 5289.000,2336.000 5297.000,2336.000 5306.000,2336.000 5315.000,2336.000 5324.000,2336.000 5333.000,2336.000 5342.000,2336.000 5351.000,2336.000 5360.000,2336.000 5368.000,2336.000 5377.000,2336.000 5386.000,2336.000 5395.000,2336.000 5404.000,2336.000 5413.000,2336.000 5422.000,2336.000 5431.000,2336.000 5440.000,2336.000 5448.000,2336.000 5457.000,2336.000 5466.000,2336.000 5475.000,2336.000 5484.000,2336.000 5493.000,2336.000 5502.000,2336.000 5511.000,2336.000 5520.000,2336.000 5528.000,2336.000 5537.000,2336.000 5546.000,2336.000 5555.000,2336.000 5564.000,2336.000 5573.000,2336.000 5582.000,2336.000 5591.000,2336.000 5599.000,2336.000 5608.000,2336.000 5617.000,2336.000 5626.000,2336.000 5635.000,2336.000 5644.000,2336.000 5653.000,2336.000 5662.000,2336.000 5671.000,2336.000 5679.000,2336.000 5688.000,2336.000 5697.000,2336.000 5706.000,2336.000 5715.000,2336.000 5724.000,2336.000 5733.000,2336.000 5742.000,2336.000 5751.000,2336.000 5759.000,2336.000 5768.000,2336.000 5777.000,2336.000 5786.000,2336.000 5795.000,2336.000 5804.000,2336.000 5813.000,2336.000 5822.000,2336.000 5831.000,2336.000 5839.000,2336.000 5848.000,2336.000 5857.000,2336.000 5866.000,2336.000 5875.000,2336.000 5884.000,2336.000 5893.000,2336.000 5902.000,2336.000 5910.000,2336.000 5919.000,2336.000 5928.000,2336.000 5937.000,2336.000 5946.000,2336.000 5955.000,2336.000 5964.000,2336.000 5973.000,2336.000 5982.000,2336.000 5990.000,2336.000 5999.000,2336.000 6008.000,2336.000 6017.000,2336.000 6026.000,2336.000 6035.000,2336.000 6044.000,2336.000 6053.000,2336.000 6062.000,2336.000 6070.000,2336.000 6079.000,2336.000 6088.000,2336.000 6097.000,2336.000 6106.000,2336.000 6115.000,2336.000 6124.000,2336.000 6133.000,2336.000 6141.000,2336.000 6150.000,2336.000 6159.000,2336.000 6168.000,2336.000 6177.000,2336.000 6186.000,2336.000 6195.000,2336.000 6204.000,2336.000 6213.000,2336.000 6221.000,2336.000 6230.000,2336.000 6239.000,2336.000 6248.000,2336.000 6257.000,2336.000 6266.000,2336.000 6275.000,2336.000 6284.000,2336.000 6293.000,2336.000 6301.000,2336.000 6310.000,2336.000 6319.000,2336.000 6328.000,2336.000 6337.000,2336.000 6346.000,2336.000 6355.000,2336.000 6364.000,2336.000 6372.000,2336.000 6381.000,2336.000 6390.000,2336.000 6399.000,2336.000 6408.000,2336.000 6417.000,2336.000 6426.000,2336.000 6435.000,2336.000 6444.000,2336.000 6452.000,2336.000 6461.000,2336.000 6470.000,2336.000 6479.000,2336.000 6488.000,2336.000 6497.000,2336.000 6506.000,2336.000 6515.000,2336.000 6524.000,2336.000 6532.000,2336.000 6541.000,2336.000 6550.000,2336.000 6559.000,2336.000 6568.000,2336.000 6577.000,2336.000 6586.000,2336.000 6595.000,2336.000 6603.000,2336.000 6612.000,2336.000 6621.000,2336.000 6630.000,2336.000 6639.000,2336.000 6648.000,2336.000 6657.000,2336.000 6666.000,2336.000 6675.000,2336.000 6683.000,2336.000 6692.000,2336.000 6701.000,2336.000 6710.000,2336.000 6719.000,2336.000 6728.000,2336.000 6737.000,2336.000 6746.000,2336.000 6755.000,2336.000 6763.000,2336.000 6772.000,2336.000 6781.000,2336.000 6790.000,2336.000 6799.000,2336.000 6808.000,2336.000 6817.000,2336.000 6826.000,2336.000 6834.000,2336.000 6843.000,2336.000 6852.000,2336.000 6861.000,2336.000 6870.000,2336.000 6879.000,2336.000 6888.000,2336.000 6897.000,2336.000 6906.000,2336.000 6914.000,2336.000 6923.000,2336.000 6932.000,2336.000 6941.000,2336.000 6950.000,2336.000 6959.000,2336.000 6968.000,2336.000 6977.000,2336.000 6986.000,2336.000 6994.000,2336.000 7003.000,2336.000 7012.000,2336.000 7021.000,2336.000 7030.000,2336.000 7039.000,2336.000 7048.000,2336.000 7057.000,2336.000 7066.000,2336.000 7074.000,2336.000 7083.000,2336.000 7092.000,2336.000 7101.000,2336.000 7110.000,2336.000 7119.000,2336.000 7128.000,2336.000 7137.000,2336.000 7145.000,2336.000 7154.000,2336.000 7163.000,2336.000 7172.000,2336.000 7181.000,2336.000 7190.000,2336.000 7199.000,2336.000 7208.000,2336.000 7217.000,2336.000 7225.000,2336.000 7234.000,2336.000 7243.000,2336.000 7252.000,2336.000 7261.000,2336.000 7270.000,2336.000 7279.000,2336.000 7288.000,2336.000 7297.000,2336.000 7305.000,2336.000 7314.000,2336.000 7323.000,2336.000 7332.000,2336.000 7341.000,2336.000" fill="none" stroke="#0b1220" stroke-width="1.90" stroke-linecap="round" stroke-linejoin="round" vector-effect="non-scaling-stroke"/>
  <polyline points="7341.000,2336.000 7350.000,2336.000 7359.000,2336.000 7368.000,2336.000 7376.000,2336.000 7385.000,2336.000 7394.000,2336.000 7403.000,2336.000 7412.000,2336.000 7421.000,2336.000 7430.000,2336.000 7439.000,2336.000 7448.000,2336.000 7456.000,2336.000 7465.000,2336.000 7474.000,2336.000 7483.000,2336.000 7492.000,2336.000 7501.000,2336.000 7510.000,2336.000 7519.000,2336.000 7528.000,2336.000 7536.000,2336.000 7545.000,2336.000 7554.000,2336.000 7563.000,2336.000 7572.000,2336.000 7581.000,2336.000 7590.000,2336.000 7599.000,2336.000 7607.000,2336.000 7616.000,2336.000 7625.000,2336.000 7634.000,2336.000 7643.000,2336.000 7652.000,2336.000 7661.000,2336.000 7670.000,2336.000 7679.000,2336.000 7687.000,2336.000 7696.000,2336.000 7705.000,2336.000 7714.000,2336.000 7723.000,2336.000 7732.000,2336.000 7741.000,2336.000 7750.000,2336.000 7759.000,2336.000 7767.000,2336.000 7776.000,2336.000 7785.000,2336.000 7794.000,2336.000 7803.000,2336.000 7812.000,2336.000 7821.000,2336.000 7830.000,8416.000 7838.000,8416.000 7847.000,8416.000 7856.000,8416.000 7865.000,8416.000 7874.000,8416.000 7883.000,8416.000 7892.000,8416.000 7901.000,8416.000 7910.000,8416.000 7918.000,8416.000 7927.000,8416.000 7936.000,8416.000 7945.000,8416.000 7954.000,8416.000 7963.000,8416.000 7972.000,8416.000 7981.000,8416.000 7990.000,8416.000 7998.000,8416.000 8007.000,8416.000 8016.000,8416.000 8025.000,8416.000 8034.000,8416.000 8043.000,8416.000 8052.000,8416.000 8061.000,8416.000 8069.000,8416.000 8078.000,8416.000 8087.000,8416.000 8096.000,8416.000 8105.000,8416.000 8114.000,8416.000 8123.000,8416.000 8132.000,8416.000 8141.000,8416.000 8149.000,8416.000 8158.000,8416.000 8167.000,8416.000 8176.000,8416.000 8185.000,8416.000 8194.000,8416.000 8203.000,8416.000 8212.000,8416.000 8221.000,8416.000 8229.000,8416.000 8238.000,8416.000 8247.000,8416.000 8256.000,8416.000 8265.000,8416.000 8274.000,8416.000 8283.000,8416.000 8292.000,8416.000 8300.000,8416.000 8309.000,8416.000 8318.000,8416.000 8327.000,8416.000 8336.000,8416.000 8345.000,8416.000 8354.000,8416.000 8363.000,8416.000 8372.000,8416.000 8380.000,8416.000 8389.000,8416.000 8398.000,8416.000 8407.000,8416.000 8416.000,8416.000 8425.000,8416.000 8434.000,8416.000 8443.000,8416.000 8452.000,8416.000 8460.000,8416.000 8469.000,8416.000 8478.000,8416.000 8487.000,8416.000 8496.000,8416.000 8505.000,8416.000 8514.000,8416.000 8523.000,8416.000 8532.000,8416.000 8540.000,8416.000 8549.000,8416.000 8558.000,8416.000 8567.000,8416.000 8576.000,8416.000 8585.000,8416.000 8594.000,8416.000 8603.000,8416.000 8611.000,8416.000 8620.000,8416.000 8629.000,8416.000 8638.000,8416.000 8647.000,8416.000 8656.000,8416.000 8665.000,8416.000 8674.000,8416.000 8683.000,8416.000 8691.000,8416.000 8700.000,8416.000 8709.000,8416.000 8718.000,2336.000 8727.000,2336.000 8736.000,2336.000 8745.000,2336.000 8754.000,2336.000 8763.000,2336.000 8771.000,2336.000 8780.000,2336.000 8789.000,2336.000 8798.000,2336.000 8807.000,2336.000 8816.000,2336.000 8825.000,2336.000 8834.000,2336.000 8842.000,2336.000 8851.000,2336.000 8860.000,2336.000 8869.000,2336.000 8878.000,2336.000 8887.000,2336.000 8896.000,2336.000 8905.000,2336.000 8914.000,2336.000 8922.000,2336.000 8931.000,2336.000 8940.000,2336.000 8949.000,2336.000 8958.000,2336.000 8967.000,2336.000 8976.000,2336.000 8985.000,2336.000 8994.000,2336.000 9002.000,2336.000 9011.000,2336.000 9020.000,2336.000 9029.000,2336.000 9038.000,2336.000 9047.000,2336.000 9056.000,2336.000 9065.000,2336.000 9073.000,2336.000 9082.000,2336.000 9091.000,2336.000 9100.000,2336.000 9109.000,2336.000 9118.000,2336.000 9127.000,2336.000 9136.000,2336.000 9145.000,2336.000 9153.000,2336.000 9162.000,2336.000 9171.000,2336.000 9180.000,2336.000 9189.000,2336.000 9198.000,2336.000 9207.000,2336.000 9216.000,2336.000 9225.000,2336.000 9233.000,2336.000 9242.000,2336.000 9251.000,2336.000 9260.000,2336.000 9269.000,2336.000 9278.000,2336.000 9287.000,2336.000 9296.000,2336.000 9304.000,2336.000 9313.000,2336.000 9322.000,2336.000 9331.000,2336.000 9340.000,2336.000 9349.000,2336.000 9358.000,2336.000 9367.000,2336.000 9376.000,2336.000 9384.000,2336.000 9393.000,2336.000 9402.000,2336.000 9411.000,2336.000 9420.000,2336.000 9429.000,2336.000 9438.000,2336.000 9447.000,2336.000 9456.000,2336.000 9464.000,2336.000 9473.000,2336.000 9482.000,2336.000 9491.000,2336.000 9500.000,2336.000 9509.000,2336.000 9518.000,2336.000 9527.000,2336.000 9535.000,2336.000 9544.000,2336.000 9553.000,2336.000 9562.000,2336.000 9571.000,2336.000 9580.000,2336.000 9589.000,2336.000 9598.000,2336.000 9607.000,2336.000" fill="none" stroke="#0b1220" stroke-width="1.90" stroke-linecap="round" stroke-linejoin="round" vector-effect="non-scaling-stroke"/>
  <polyline points="9607.000,2336.000 9615.000,2336.000 9624.000,2336.000 9633.000,2336.000 9642.000,2336.000" fill="none" stroke="#0b1220" stroke-width="1.90" stroke-linecap="round" stroke-linejoin="round" vector-effect="non-scaling-stroke"/>
  <text x="544.000" y="9292.000" font-family="monospace" font-size="48.000" fill="#0b1220" font-weight="500">0</text>
  <text x="2125.000" y="9292.000" font-family="monospace" font-size="48.000" fill="#0b1220" font-weight="500">2000</text>
  <text x="3947.000" y="9292.000" font-family="monospace" font-size="48.000" fill="#0b1220" font-weight="500">4000</text>
  <text x="5768.000" y="9292.000" font-family="monospace" font-size="48.000" fill="#0b1220" font-weight="500">6000</text>
  <text x="7590.000" y="9292.000" font-family="monospace" font-size="48.000" fill="#0b1220" font-weight="500">8000</text>
  <text x="9331.000" y="9292.000" font-family="monospace" font-size="48.000" fill="#0b1220" font-weight="500">10000</text>
  <text x="344.000" y="9092.000" font-family="monospace" font-size="48.000" fill="#0b1220" font-weight="500">0</text>
  <text x="24.000" y="7741.000" font-family="monospace" font-size="48.000" fill="#0b1220" font-weight="500">0.2</text>
  <text x="24.000" y="6390.000" font-family="monospace" font-size="48.000" fill="#0b1220" font-weight="500">0.4</text>
  <text x="24.000" y="5038.000" font-family="monospace" font-size="48.000" fill="#0b1220" font-weight="500">0.6</text>
  <text x="24.000" y="3687.000" font-family="monospace" font-size="48.000" fill="#0b1220" font-weight="500">0.8</text>
  <text x="344.000" y="2336.000" font-family="monospace" font-size="48.000" fill="#0b1220" font-weight="500">1</text>
  <text x="24.000" y="985.000" font-family="monospace" font-size="48.000" fill="#0b1220" font-weight="500">1.2</text>
  <text x="4057.000" y="9613.000" font-family="monospace" font-size="48.000" fill="#0b1220" font-weight="500">FREQUENCY (HZ)</text>
  <text x="1998.000" y="24.000" font-family="monospace" font-size="72.000" fill="#0b1220" font-weight="500">FM DEMOD. ERROR WEIGHTING.</text>
</svg>
