<svg xmlns="http://www.w3.org/2000/svg" width="5508" height="3448" viewBox="0 0 5508.000 3448.000">
  <rect x="0" y="0" width="100%" height="100%" fill="#ffffff"/>
  <polyline points="484.000,374.000 5484.000,374.000 5484.000,2874.000 484.000,2874.000 484.000,374.000" fill="none" stroke="#0b1220" stroke-width="1.90" stroke-linecap="round" stroke-linejoin="round" vector-effect="non-scaling-stroke"/>
  <polyline points="484.000,374.000 484.000,2874.000" fill="none" stroke="#0b1220" stroke-width="1.90" stroke-linecap="round" stroke-linejoin="round" vector-effect="non-scaling-stroke"/>
  <polyline points="1484.000,374.000 1484.000,2874.000" fill="none" stroke="#0b1220" stroke-width="1.90" stroke-linecap="round" stroke-linejoin="round" vector-effect="non-scaling-stroke"/>
  <polyline points="2484.000,374.000 2484.000,2874.000" fill="none" stroke="#0b1220" stroke-width="1.90" stroke-linecap="round" stroke-linejoin="round" vector-effect="non-scaling-stroke"/>
  <polyline points="3484.000,374.000 3484.000,2874.000" fill="none" stroke="#0b1220" stroke-width="1.90" stroke-linecap="round" stroke-linejoin="round" vector-effect="non-scaling-stroke"/>
  <polyline points="4484.000,374.000 4484.000,2874.000" fill="none" stroke="#0b1220" stroke-width="1.90" stroke-linecap="round" stroke-linejoin="round" vector-effect="non-scaling-stroke"/>
  <polyline points="5484.000,374.000 5484.000,2874.000" fill="none" stroke="#0b1220" stroke-width="1.90" stroke-linecap="round" stroke-linejoin="round" vector-effect="non-scaling-stroke"/>
  <polyline points="984.000,349.000 984.000,399.000" fill="none" stroke="#0b1220" stroke-width="1.90" stroke-linecap="round" stroke-linejoin="round" vector-effect="non-scaling-stroke"/>
  <polyline points="984.000,2849.000 984.000,2899.000" fill="none" stroke="#0b1220" stroke-width="1.90" stroke-linecap="round" stroke-linejoin="round" vector-effect="non-scaling-stroke"/>
  <polyline points="1984.000,349.000 1984.000,399.000" fill="none" stroke="#0b1220" stroke-width="1.90" stroke-linecap="round" stroke-linejoin="round" vector-effect="non-scaling-stroke"/>
  <polyline points="1984.000,2849.000 1984.000,2899.000" fill="none" stroke="#0b1220" stroke-width="1.90" stroke-linecap="round" stroke-linejoin="round" vector-effect="non-scaling-stroke"/>
  <polyline points="2984.000,349.000 2984.000,399.000" fill="none" stroke="#0b1220" stroke-width="1.90" stroke-linecap="round" stroke-linejoin="round" vector-effect="non-scaling-stroke"/>
  <polyline points="2984.000,2849.000 2984.000,2899.000" fill="none" stroke="#0b1220" stroke-width="1.90" stroke-linecap="round" stroke-linejoin="round" vector-effect="non-scaling-stroke"/>
  <polyline points="3984.000,349.000 3984.000,399.000" fill="none" stroke="#0b1220" stroke-width="1.90" stroke-linecap="round" stroke-linejoin="round" vector-effect="non-scaling-stroke"/>
  <polyline points="3984.000,2849.000 3984.000,2899.000" fill="none" stroke="#0b1220" stroke-width="1.90" stroke-linecap="round" stroke-linejoin="round" vector-effect="non-scaling-stroke"/>
  <polyline points="4984.000,349.000 4984.000,399.000" fill="none" stroke="#0b1220" stroke-width="1.90" stroke-linecap="round" stroke-linejoin="round" vector-effect="non-scaling-stroke"/>
  <polyline points="4984.000,2849.000 4984.000,2899.000" fill="none" stroke="#0b1220" stroke-width="1.90" stroke-linecap="round" stroke-linejoin="round" vector-effect="non-scaling-stroke"/>
  <polyline points="5484.000,2874.000 484.000,2874.000" fill="none" stroke="#0b1220" stroke-width="1.90" stroke-linecap="round" stroke-linejoin="round" vector-effect="non-scaling-stroke"/>
  <polyline points="5484.000,1624.000 484.000,1624.000" fill="none" stroke="#0b1220" stroke-width="1.90" stroke-linecap="round" stroke-linejoin="round" vector-effect="non-scaling-stroke"/>
  <polyline points="5484.000,374.000 484.000,374.000" fill="none" stroke="#0b1220" stroke-width="1.90" stroke-linecap="round" stroke-linejoin="round" vector-effect="non-scaling-stroke"/>
  <polyline points="534.000,1621.000 584.000,1600.000 634.000,1525.000 684.000,1365.000 734.000,1152.000 784.000,982.000 834.000,961.000 884.000,1120.000 934.000,1392.000 984.000,1656.000 1034.000,1813.000 1084.000,1829.000 1134.000,1744.000 1184.000,1629.000 1234.000,1549.000 1284.000,1531.000 1334.000,1564.000 1384.000,1616.000 1434.000,1656.000 1484.000,1667.000 1534.000,1653.000 1584.000,1629.000 1634.000,1610.000 1684.000,1603.000 1734.000,1609.000 1784.000,1620.000 1834.000,1629.000 1884.000,1633.000 1934.000,1631.000 1984.000,1626.000 2034.000,1621.000 2084.000,1619.000 2134.000,1620.000 2184.000,1622.000 2234.000,1625.000 2284.000,1626.000 2334.000,1625.000 2384.000,1624.000 2434.000,1623.000 2484.000,1623.000 2534.000,1623.000 2584.000,1623.000 2634.000,1624.000 2684.000,1624.000 2734.000,1624.000 2784.000,1624.000 2834.000,1623.000 2884.000,1623.000 2934.000,1623.000 2984.000,1623.000 3034.000,1624.000 3084.000,1624.000 3134.000,1624.000 3184.000,1624.000 3234.000,1623.000 3284.000,1623.000 3334.000,1623.000 3384.000,1623.000 3434.000,1623.000 3484.000,1624.000 3534.000,1624.000 3584.000,1624.000 3634.000,1624.000 3684.000,1623.000 3734.000,1623.000 3784.000,1623.000 3834.000,1623.000 3884.000,1624.000 3934.000,1624.000 3984.000,1624.000 4034.000,1624.000 4084.000,1623.000 4134.000,1623.000 4184.000,1623.000 4234.000,1623.000 4284.000,1624.000 4334.000,1624.000 4384.000,1624.000 4434.000,1624.000 4484.000,1623.000 4534.000,1623.000 4584.000,1623.000 4634.000,1623.000 4684.000,1624.000 4734.000,1624.000 4784.000,1624.000 4834.000,1624.000 4884.000,1623.000 4934.000,1623.000 4984.000,1623.000 5034.000,1623.000 5084.000,1624.000 5134.000,1624.000 5184.000,1624.000 5234.000,1624.000 5284.000,1623.000 5334.000,1623.000 5384.000,1623.000 5434.000,1623.000 5484.000,1624.000" fill="none" stroke="#0b1220" stroke-width="1.90" stroke-linecap="round" stroke-linejoin="round" vector-effect="non-scaling-stroke"/>
  <text x="374.000" y="3084.000" font-family="monospace" font-size="24.000" fill="#0b1220" font-weight="500">    0</text>
  <text x="1374.000" y="3084.000" font-family="monospace" font-size="24.000" fill="#0b1220" font-weight="500">   20</text>
  <text x="2374.000" y="3084.000" font-family="monospace" font-size="24.000" fill="#0b1220" font-weight="500">   40</text>
  <text x="3374.000" y="3084.000" font-family="monospace" font-size="24.000" fill="#0b1220" font-weight="500">   60</text>
  <text x="4374.000" y="3084.000" font-family="monospace" font-size="24.000" fill="#0b1220" font-weight="500">   80</text>
  <text x="5374.000" y="3084.000" font-family="monospace" font-size="24.000" fill="#0b1220" font-weight="500">  100</text>
  <text x="24.000" y="2924.000" font-family="monospace" font-size="24.000" fill="#0b1220" font-weight="500"> -0.5</text>
  <text x="24.000" y="1674.000" font-family="monospace" font-size="24.000" fill="#0b1220" font-weight="500">  0.0</text>
  <text x="24.000" y="424.000" font-family="monospace" font-size="24.000" fill="#0b1220" font-weight="500">  0.5</text>
  <text x="524.000" y="3224.000" font-family="monospace" font-size="24.000" fill="#0b1220" font-weight="500">File: butter6_fir.sd</text>
  <text x="524.000" y="3424.000" font-family="monospace" font-size="24.000" fill="#0b1220" font-weight="500">Impulse response of butter6.filt</text>
  <text x="4424.000" y="24.000" font-family="monospace" font-size="24.000" fill="#0b1220" font-weight="500">12 Jun 1987 16:05</text>
</svg>
