<svg xmlns="http://www.w3.org/2000/svg" width="9877" height="9637" viewBox="0 0 9877.000 9637.000">
  <rect x="0" y="0" width="100%" height="100%" fill="#ffffff"/>
  <polyline points="9853.000,9092.000 746.000,9092.000" fill="none" stroke="#0b1220" stroke-width="1.90" stroke-linecap="round" stroke-linejoin="round" vector-effect="non-scaling-stroke"/>
  <polyline points="746.000,9092.000 746.000,985.000" fill="none" stroke="#0b1220" stroke-width="1.90" stroke-linecap="round" stroke-linejoin="round" vector-effect="non-scaling-stroke"/>
  <polyline points="746.000,985.000 9853.000,985.000" fill="none" stroke="#0b1220" stroke-width="1.90" stroke-linecap="round" stroke-linejoin="round" vector-effect="non-scaling-stroke"/>
  <polyline points="9853.000,985.000 9853.000,9092.000" fill="none" stroke="#0b1220" stroke-width="1.90" stroke-linecap="round" stroke-linejoin="round" vector-effect="non-scaling-stroke"/>
  <polyline points="2567.000,9092.000 2567.000,985.000" fill="none" stroke="#0b1220" stroke-width="1.90" stroke-linecap="round" stroke-linejoin="round" vector-effect="non-scaling-stroke"/>
  <polyline points="4389.000,9092.000 4389.000,985.000" fill="none" stroke="#0b1220" stroke-width="1.90" stroke-linecap="round" stroke-linejoin="round" vector-effect="non-scaling-stroke"/>
  <polyline points="6210.000,9092.000 6210.000,985.000" fill="none" stroke="#0b1220" stroke-width="1.90" stroke-linecap="round" stroke-linejoin="round" vector-effect="non-scaling-stroke"/>
  <polyline points="8032.000,9092.000 8032.000,985.000" fill="none" stroke="#0b1220" stroke-width="1.90" stroke-linecap="round" stroke-linejoin="round" vector-effect="non-scaling-stroke"/>
  <polyline points="746.000,7471.000 9853.000,7471.000" fill="none" stroke="#0b1220" stroke-width="1.90" stroke-linecap="round" stroke-linejoin="round" vector-effect="non-scaling-stroke"/>
  <polyline points="746.000,5849.000 9853.000,5849.000" fill="none" stroke="#0b1220" stroke-width="1.90" stroke-linecap="round" stroke-linejoin="round" vector-effect="non-scaling-stroke"/>
  <polyline points="746.000,4228.000 9853.000,4228.000" fill="none" stroke="#0b1220" stroke-width="1.90" stroke-linecap="round" stroke-linejoin="round" vector-effect="non-scaling-stroke"/>
  <polyline points="746.000,2606.000 9853.000,2606.000" fill="none" stroke="#0b1220" stroke-width="1.90" stroke-linecap="round" stroke-linejoin="round" vector-effect="non-scaling-stroke"/>
  <polyline points="746.000,9092.000 755.000,9082.000 764.000,9072.000 773.000,9062.000 782.000,9052.000 790.000,9043.000 799.000,9033.000 808.000,9023.000 817.000,9013.000 826.000,9003.000 835.000,8993.000 844.000,8983.000 853.000,8973.000 862.000,8963.000 870.000,8954.000 879.000,8944.000 888.000,8934.000 897.000,8924.000 906.000,8914.000 915.000,8904.000 924.000,8894.000 933.000,8884.000 941.000,8874.000 950.000,8865.000 959.000,8855.000 968.000,8845.000 977.000,8835.000 986.000,8825.000 995.000,8815.000 1004.000,8805.000 1013.000,8795.000 1021.000,8786.000 1030.000,8776.000 1039.000,8766.000 1048.000,8756.000 1057.000,8746.000 1066.000,8736.000 1075.000,8726.000 1084.000,8716.000 1093.000,8706.000 1101.000,8697.000 1110.000,8687.000 1119.000,8677.000 1128.000,8667.000 1137.000,8657.000 1146.000,8647.000 1155.000,8637.000 1164.000,8627.000 1172.000,8617.000 1181.000,8608.000 1190.000,8598.000 1199.000,8588.000 1208.000,8578.000 1217.000,8568.000 1226.000,8558.000 1235.000,8548.000 1244.000,8538.000 1252.000,8528.000 1261.000,8519.000 1270.000,8509.000 1279.000,8499.000 1288.000,8489.000 1297.000,8479.000 1306.000,8469.000 1315.000,8459.000 1324.000,8449.000 1332.000,8439.000 1341.000,8430.000 1350.000,8420.000 1359.000,8410.000 1368.000,8400.000 1377.000,8390.000 1386.000,8380.000 1395.000,8370.000 1403.000,8360.000 1412.000,8351.000 1421.000,8341.000 1430.000,8331.000 1439.000,8321.000 1448.000,8311.000 1457.000,8301.000 1466.000,8291.000 1475.000,8281.000 1483.000,8271.000 1492.000,8262.000 1501.000,8252.000 1510.000,8242.000 1519.000,8232.000 1528.000,8222.000 1537.000,8212.000 1546.000,8202.000 1555.000,8192.000 1563.000,8182.000 1572.000,8173.000 1581.000,8163.000 1590.000,8153.000 1599.000,8143.000 1608.000,8133.000 1617.000,8123.000 1626.000,8113.000 1634.000,8103.000 1643.000,8093.000 1652.000,8084.000 1661.000,8074.000 1670.000,8064.000 1679.000,8054.000 1688.000,8044.000 1697.000,8034.000 1706.000,8024.000 1714.000,8014.000 1723.000,8004.000 1732.000,7995.000 1741.000,7985.000 1750.000,7975.000 1759.000,7965.000 1768.000,7955.000 1777.000,7945.000 1786.000,7935.000 1794.000,7925.000 1803.000,7915.000 1812.000,7906.000 1821.000,7896.000 1830.000,7886.000 1839.000,7876.000 1848.000,7866.000 1857.000,7856.000 1865.000,7846.000 1874.000,7836.000 1883.000,7827.000 1892.000,7817.000 1901.000,7807.000 1910.000,7797.000 1919.000,7787.000 1928.000,7777.000 1937.000,7767.000 1945.000,7757.000 1954.000,7747.000 1963.000,7738.000 1972.000,7728.000 1981.000,7718.000 1990.000,7708.000 1999.000,7698.000 2008.000,7688.000 2017.000,7678.000 2025.000,7668.000 2034.000,7658.000 2043.000,7649.000 2052.000,7639.000 2061.000,7629.000 2070.000,7619.000 2079.000,7609.000 2088.000,7599.000 2097.000,7589.000 2105.000,7579.000 2114.000,7569.000 2123.000,7560.000 2132.000,7550.000 2141.000,7540.000 2150.000,7530.000 2159.000,7520.000 2168.000,7510.000 2176.000,7500.000 2185.000,7490.000 2194.000,7480.000 2203.000,7471.000 2212.000,7461.000 2221.000,7451.000 2230.000,7441.000 2239.000,7431.000 2248.000,7421.000 2256.000,7411.000 2265.000,7401.000 2274.000,7392.000 2283.000,7382.000 2292.000,7372.000 2301.000,7362.000 2310.000,7352.000 2319.000,7342.000 2328.000,7332.000 2336.000,7322.000 2345.000,7312.000 2354.000,7303.000 2363.000,7293.000 2372.000,7283.000 2381.000,7273.000 2390.000,7263.000 2399.000,7253.000 2407.000,7243.000 2416.000,7233.000 2425.000,7223.000 2434.000,7214.000 2443.000,7204.000 2452.000,7194.000 2461.000,7184.000 2470.000,7174.000 2479.000,7164.000 2487.000,7154.000 2496.000,7144.000 2505.000,7134.000 2514.000,7125.000 2523.000,7115.000 2532.000,7105.000 2541.000,7095.000 2550.000,7085.000 2559.000,7075.000 2567.000,7065.000 2576.000,7055.000 2585.000,7045.000 2594.000,7036.000 2603.000,7026.000 2612.000,7016.000 2621.000,7006.000 2630.000,6996.000 2638.000,6986.000 2647.000,6976.000 2656.000,6966.000 2665.000,6956.000 2674.000,6947.000 2683.000,6937.000 2692.000,6927.000 2701.000,6917.000 2710.000,6907.000 2718.000,6897.000 2727.000,6887.000 2736.000,6877.000 2745.000,6868.000 2754.000,6858.000 2763.000,6848.000 2772.000,6838.000 2781.000,6828.000 2790.000,6818.000 2798.000,6808.000 2807.000,6798.000 2816.000,6788.000 2825.000,6779.000 2834.000,6769.000 2843.000,6759.000 2852.000,6749.000 2861.000,6739.000 2869.000,6729.000 2878.000,6719.000 2887.000,6709.000 2896.000,6699.000 2905.000,6690.000 2914.000,6680.000 2923.000,6670.000 2932.000,6660.000 2941.000,6650.000 2949.000,6640.000 2958.000,6630.000 2967.000,6620.000 2976.000,6610.000 2985.000,6601.000 2994.000,6591.000 3003.000,6581.000 3012.000,6571.000" fill="none" stroke="#0b1220" stroke-width="1.90" stroke-linecap="round" stroke-linejoin="round" vector-effect="non-scaling-stroke"/>
  <polyline points="3012.000,6571.000 3021.000,6561.000 3029.000,6551.000 3038.000,6541.000 3047.000,6531.000 3056.000,6521.000 3065.000,6512.000 3074.000,6502.000 3083.000,6492.000 3092.000,6482.000 3100.000,6472.000 3109.000,6462.000 3118.000,6452.000 3127.000,6442.000 3136.000,6433.000 3145.000,6423.000 3154.000,6413.000 3163.000,6403.000 3172.000,6393.000 3180.000,6383.000 3189.000,6373.000 3198.000,6363.000 3207.000,6353.000 3216.000,6344.000 3225.000,6334.000 3234.000,6324.000 3243.000,6314.000 3252.000,6304.000 3260.000,6294.000 3269.000,6284.000 3278.000,6274.000 3287.000,6264.000 3296.000,6255.000 3305.000,6245.000 3314.000,6235.000 3323.000,6225.000 3331.000,6215.000 3340.000,6205.000 3349.000,6195.000 3358.000,6185.000 3367.000,6175.000 3376.000,6166.000 3385.000,6156.000 3394.000,6146.000 3403.000,6136.000 3411.000,6126.000 3420.000,6116.000 3429.000,6106.000 3438.000,6096.000 3447.000,6086.000 3456.000,6077.000 3465.000,6067.000 3474.000,6057.000 3483.000,6047.000 3491.000,6037.000 3500.000,6027.000 3509.000,6017.000 3518.000,6007.000 3527.000,5998.000 3536.000,5988.000 3545.000,5978.000 3554.000,5968.000 3563.000,5958.000 3571.000,5948.000 3580.000,5938.000 3589.000,5928.000 3598.000,5918.000 3607.000,5909.000 3616.000,5899.000 3625.000,5889.000 3634.000,5879.000 3642.000,5869.000 3651.000,5859.000 3660.000,5849.000 3669.000,5839.000 3678.000,5829.000 3687.000,5820.000 3696.000,5810.000 3705.000,5800.000 3714.000,5790.000 3722.000,5780.000 3731.000,5770.000 3740.000,5760.000 3749.000,5750.000 3758.000,5740.000 3767.000,5731.000 3776.000,5721.000 3785.000,5711.000 3794.000,5701.000 3802.000,5691.000 3811.000,5681.000 3820.000,5671.000 3829.000,5661.000 3838.000,5651.000 3847.000,5642.000 3856.000,5632.000 3865.000,5622.000 3873.000,5612.000 3882.000,5602.000 3891.000,5592.000 3900.000,5582.000 3909.000,5572.000 3918.000,5562.000 3927.000,5553.000 3936.000,5543.000 3945.000,5533.000 3953.000,5523.000 3962.000,5513.000 3971.000,5503.000 3980.000,5493.000 3989.000,5483.000 3998.000,5474.000 4007.000,5464.000 4016.000,5454.000 4025.000,5444.000 4033.000,5434.000 4042.000,5424.000 4051.000,5414.000 4060.000,5404.000 4069.000,5394.000 4078.000,5385.000 4087.000,5375.000 4096.000,5365.000 4104.000,5355.000 4113.000,5345.000 4122.000,5335.000 4131.000,5325.000 4140.000,5315.000 4149.000,5305.000 4158.000,5296.000 4167.000,5286.000 4176.000,5276.000 4184.000,5266.000 4193.000,5256.000 4202.000,5246.000 4211.000,5236.000 4220.000,5226.000 4229.000,5216.000 4238.000,5207.000 4247.000,5197.000 4256.000,5187.000 4264.000,5177.000 4273.000,5167.000 4282.000,5157.000 4291.000,5147.000 4300.000,5137.000 4309.000,5127.000 4318.000,5118.000 4327.000,5108.000 4335.000,5098.000 4344.000,5088.000 4353.000,5078.000 4362.000,5068.000 4371.000,5058.000 4380.000,5048.000 4389.000,5038.000 4398.000,5029.000 4407.000,5019.000 4415.000,5009.000 4424.000,4999.000 4433.000,4989.000 4442.000,4979.000 4451.000,4969.000 4460.000,4959.000 4469.000,4950.000 4478.000,4940.000 4487.000,4930.000 4495.000,4920.000 4504.000,4910.000 4513.000,4900.000 4522.000,4890.000 4531.000,4880.000 4540.000,4870.000 4549.000,4861.000 4558.000,4851.000 4566.000,4841.000 4575.000,4831.000 4584.000,4821.000 4593.000,4811.000 4602.000,4801.000 4611.000,4791.000 4620.000,4781.000 4629.000,4772.000 4638.000,4762.000 4646.000,4752.000 4655.000,4742.000 4664.000,4732.000 4673.000,4722.000 4682.000,4712.000 4691.000,4702.000 4700.000,4692.000 4709.000,4683.000 4718.000,4673.000 4726.000,4663.000 4735.000,4653.000 4744.000,4643.000 4753.000,4633.000 4762.000,4623.000 4771.000,4613.000 4780.000,4603.000 4789.000,4594.000 4798.000,4584.000 4806.000,4574.000 4815.000,4564.000 4824.000,4554.000 4833.000,4544.000 4842.000,4534.000 4851.000,4524.000 4860.000,4515.000 4869.000,4505.000 4877.000,4495.000 4886.000,4485.000 4895.000,4475.000 4904.000,4465.000 4913.000,4455.000 4922.000,4445.000 4931.000,4435.000 4940.000,4426.000 4949.000,4416.000 4957.000,4406.000 4966.000,4396.000 4975.000,4386.000 4984.000,4376.000 4993.000,4366.000 5002.000,4356.000 5011.000,4346.000 5020.000,4337.000 5029.000,4327.000 5037.000,4317.000 5046.000,4307.000 5055.000,4297.000 5064.000,4287.000 5073.000,4277.000 5082.000,4267.000 5091.000,4257.000 5100.000,4248.000 5108.000,4238.000 5117.000,4228.000 5126.000,4218.000 5135.000,4208.000 5144.000,4198.000 5153.000,4188.000 5162.000,4178.000 5171.000,4168.000 5180.000,4159.000 5188.000,4149.000 5197.000,4139.000 5206.000,4129.000 5215.000,4119.000 5224.000,4109.000 5233.000,4099.000 5242.000,4089.000 5251.000,4079.000 5260.000,4070.000 5268.000,4060.000 5277.000,4050.000" fill="none" stroke="#0b1220" stroke-width="1.90" stroke-linecap="round" stroke-linejoin="round" vector-effect="non-scaling-stroke"/>
  <polyline points="5277.000,4050.000 5286.000,4040.000 5295.000,4030.000 5304.000,4020.000 5313.000,4010.000 5322.000,4000.000 5331.000,3991.000 5339.000,3981.000 5348.000,3971.000 5357.000,3961.000 5366.000,3951.000 5375.000,3941.000 5384.000,3931.000 5393.000,3921.000 5402.000,3911.000 5411.000,3902.000 5419.000,3892.000 5428.000,3882.000 5437.000,3872.000 5446.000,3862.000 5455.000,3852.000 5464.000,3842.000 5473.000,3832.000 5482.000,3822.000 5491.000,3813.000 5499.000,3803.000 5508.000,3793.000 5517.000,3783.000 5526.000,3773.000 5535.000,3763.000 5544.000,3753.000 5553.000,3743.000 5562.000,3733.000 5570.000,3724.000 5579.000,3714.000 5588.000,3704.000 5597.000,3694.000 5606.000,3684.000 5615.000,3674.000 5624.000,3664.000 5633.000,3654.000 5642.000,3644.000 5650.000,3635.000 5659.000,3625.000 5668.000,3615.000 5677.000,3605.000 5686.000,3595.000 5695.000,3585.000 5704.000,3575.000 5713.000,3565.000 5722.000,3556.000 5730.000,3546.000 5739.000,3536.000 5748.000,3526.000 5757.000,3516.000 5766.000,3506.000 5775.000,3496.000 5784.000,3486.000 5793.000,3476.000 5801.000,3467.000 5810.000,3457.000 5819.000,3447.000 5828.000,3437.000 5837.000,3427.000 5846.000,3417.000 5855.000,3407.000 5864.000,3397.000 5873.000,3387.000 5881.000,3378.000 5890.000,3368.000 5899.000,3358.000 5908.000,3348.000 5917.000,3338.000 5926.000,3328.000 5935.000,3318.000 5944.000,3308.000 5953.000,3298.000 5961.000,3289.000 5970.000,3279.000 5979.000,3269.000 5988.000,3259.000 5997.000,3249.000 6006.000,3239.000 6015.000,3229.000 6024.000,3219.000 6033.000,3209.000 6041.000,3200.000 6050.000,3190.000 6059.000,3180.000 6068.000,3170.000 6077.000,3160.000 6086.000,3150.000 6095.000,3140.000 6104.000,3130.000 6112.000,3121.000 6121.000,3111.000 6130.000,3101.000 6139.000,3091.000 6148.000,3081.000 6157.000,3071.000 6166.000,3061.000 6175.000,3051.000 6184.000,3041.000 6192.000,3032.000 6201.000,3022.000 6210.000,3012.000 6219.000,3002.000 6228.000,2992.000 6237.000,2982.000 6246.000,2972.000 6255.000,2962.000 6264.000,2952.000 6272.000,2943.000 6281.000,2933.000 6290.000,2923.000 6299.000,2913.000 6308.000,2903.000 6317.000,2893.000 6326.000,2883.000 6335.000,2873.000 6343.000,2863.000 6352.000,2854.000 6361.000,2844.000 6370.000,2834.000 6379.000,2824.000 6388.000,2814.000 6397.000,2804.000 6406.000,2794.000 6415.000,2784.000 6423.000,2774.000 6432.000,2765.000 6441.000,2755.000 6450.000,2745.000 6459.000,2735.000 6468.000,2725.000 6477.000,2715.000 6486.000,2705.000 6495.000,2695.000 6503.000,2685.000 6512.000,2676.000 6521.000,2666.000 6530.000,2656.000 6539.000,2646.000 6548.000,2636.000 6557.000,2626.000 6566.000,2616.000 6574.000,2606.000 6583.000,2597.000 6592.000,2587.000 6601.000,2577.000 6610.000,2567.000 6619.000,2557.000 6628.000,2547.000 6637.000,2537.000 6646.000,2527.000 6654.000,2517.000 6663.000,2508.000 6672.000,2498.000 6681.000,2488.000 6690.000,2478.000 6699.000,2468.000 6708.000,2458.000 6717.000,2448.000 6726.000,2438.000 6734.000,2428.000 6743.000,2419.000 6752.000,2409.000 6761.000,2399.000 6770.000,2389.000 6779.000,2379.000 6788.000,2369.000 6797.000,2359.000 6805.000,2349.000 6814.000,2339.000 6823.000,2330.000 6832.000,2320.000 6841.000,2310.000 6850.000,2300.000 6859.000,2290.000 6868.000,2280.000 6877.000,2270.000 6885.000,2260.000 6894.000,2250.000 6903.000,2241.000 6912.000,2231.000 6921.000,2221.000 6930.000,2211.000 6939.000,2201.000 6948.000,2191.000 6957.000,2181.000 6965.000,2171.000 6974.000,2162.000 6983.000,2152.000 6992.000,2142.000 7001.000,2132.000 7010.000,2122.000 7019.000,2112.000 7028.000,2102.000 7036.000,2092.000 7045.000,2082.000 7054.000,2073.000 7063.000,2063.000 7072.000,2053.000 7081.000,2043.000 7090.000,2033.000 7099.000,2023.000 7108.000,2013.000 7116.000,2003.000 7125.000,1993.000 7134.000,1984.000 7143.000,1974.000 7152.000,1964.000 7161.000,1954.000 7170.000,1944.000 7179.000,1934.000 7188.000,1924.000 7196.000,1914.000 7205.000,1904.000 7214.000,1895.000 7223.000,1885.000 7232.000,1875.000 7241.000,1865.000 7250.000,1855.000 7259.000,1845.000 7268.000,1835.000 7276.000,1825.000 7285.000,1815.000 7294.000,1806.000 7303.000,1796.000 7312.000,1786.000 7321.000,1776.000 7330.000,1766.000 7339.000,1756.000 7347.000,1746.000 7356.000,1736.000 7365.000,1726.000 7374.000,1717.000 7383.000,1707.000 7392.000,1697.000 7401.000,1687.000 7410.000,1677.000 7419.000,1667.000 7427.000,1657.000 7436.000,1647.000 7445.000,1638.000 7454.000,1628.000 7463.000,1618.000 7472.000,1608.000 7481.000,1598.000 7490.000,1588.000 7499.000,1578.000 7507.000,1568.000 7516.000,1558.000 7525.000,1549.000 7534.000,1539.000 7543.000,1529.000" fill="none" stroke="#0b1220" stroke-width="1.90" stroke-linecap="round" stroke-linejoin="round" vector-effect="non-scaling-stroke"/>
  <polyline points="7543.000,1529.000 7552.000,1519.000 7561.000,1509.000 7570.000,1499.000 7578.000,1489.000 7587.000,1479.000 7596.000,1469.000 7605.000,1460.000 7614.000,1450.000 7623.000,1440.000 7632.000,1430.000 7641.000,1420.000 7650.000,1410.000 7658.000,1400.000 7667.000,1390.000 7676.000,1380.000 7685.000,1371.000 7694.000,1361.000 7703.000,1351.000 7712.000,1341.000 7721.000,1331.000 7730.000,1321.000 7738.000,1311.000 7747.000,1301.000 7756.000,1291.000 7765.000,1282.000 7774.000,1272.000 7783.000,1262.000 7792.000,1252.000 7801.000,1242.000 7809.000,1232.000 7818.000,1222.000 7827.000,1212.000 7836.000,1203.000 7845.000,1193.000 7854.000,1183.000 7863.000,1173.000 7872.000,1163.000 7881.000,1153.000 7889.000,1143.000 7898.000,1133.000 7907.000,1123.000 7916.000,1114.000 7925.000,1104.000 7934.000,1094.000 7943.000,1084.000 7952.000,1074.000 7961.000,1064.000 7969.000,1054.000 7978.000,1044.000 7987.000,1034.000 7996.000,1025.000 8005.000,1015.000 8014.000,1005.000 8023.000,995.000 8032.000,985.000 8040.000,1066.000 8049.000,1147.000 8058.000,1228.000 8067.000,1309.000 8076.000,1390.000 8085.000,1471.000 8094.000,1552.000 8103.000,1634.000 8112.000,1715.000 8120.000,1796.000 8129.000,1877.000 8138.000,1958.000 8147.000,2039.000 8156.000,2120.000 8165.000,2201.000 8174.000,2282.000 8183.000,2363.000 8192.000,2444.000 8200.000,2525.000 8209.000,2606.000 8218.000,2687.000 8227.000,2769.000 8236.000,2850.000 8245.000,2931.000 8254.000,3012.000 8263.000,3093.000 8271.000,3174.000 8280.000,3255.000 8289.000,3336.000 8298.000,3417.000 8307.000,3498.000 8316.000,3579.000 8325.000,3660.000 8334.000,3741.000 8343.000,3822.000 8351.000,3904.000 8360.000,3985.000 8369.000,4066.000 8378.000,4147.000 8387.000,4228.000 8396.000,4309.000 8405.000,4390.000 8414.000,4471.000 8423.000,4552.000 8431.000,4633.000 8440.000,4714.000 8449.000,4795.000 8458.000,4876.000 8467.000,4957.000 8476.000,5038.000 8485.000,5120.000 8494.000,5201.000 8502.000,5282.000 8511.000,5363.000 8520.000,5444.000 8529.000,5525.000 8538.000,5606.000 8547.000,5687.000 8556.000,5768.000 8565.000,5849.000 8574.000,5930.000 8582.000,6011.000 8591.000,6092.000 8600.000,6173.000 8609.000,6255.000 8618.000,6336.000 8627.000,6417.000 8636.000,6498.000 8645.000,6579.000 8654.000,6660.000 8662.000,6741.000 8671.000,6822.000 8680.000,6903.000 8689.000,6984.000 8698.000,7065.000 8707.000,7146.000 8716.000,7227.000 8725.000,7308.000 8734.000,7390.000 8742.000,7471.000 8751.000,7552.000 8760.000,7633.000 8769.000,7714.000 8778.000,7795.000 8787.000,7876.000 8796.000,7957.000 8805.000,8038.000 8813.000,8119.000 8822.000,8200.000 8831.000,8281.000 8840.000,8362.000 8849.000,8443.000 8858.000,8525.000 8867.000,8606.000 8876.000,8687.000 8885.000,8768.000 8893.000,8849.000 8902.000,8930.000 8911.000,9011.000 8920.000,9092.000 8929.000,9092.000 8938.000,9092.000 8947.000,9092.000 8956.000,9092.000 8965.000,9092.000 8973.000,9092.000 8982.000,9092.000 8991.000,9092.000 9000.000,9092.000 9009.000,9092.000 9018.000,9092.000 9027.000,9092.000 9036.000,9092.000 9044.000,9092.000 9053.000,9092.000 9062.000,9092.000 9071.000,9092.000 9080.000,9092.000 9089.000,9092.000 9098.000,9092.000 9107.000,9092.000 9116.000,9092.000 9124.000,9092.000 9133.000,9092.000 9142.000,9092.000 9151.000,9092.000 9160.000,9092.000 9169.000,9092.000 9178.000,9092.000 9187.000,9092.000 9196.000,9092.000 9204.000,9092.000 9213.000,9092.000 9222.000,9092.000 9231.000,9092.000 9240.000,9092.000 9249.000,9092.000 9258.000,9092.000 9267.000,9092.000 9275.000,9092.000 9284.000,9092.000 9293.000,9092.000 9302.000,9092.000 9311.000,9092.000 9320.000,9092.000 9329.000,9092.000 9338.000,9092.000 9347.000,9092.000 9355.000,9092.000 9364.000,9092.000 9373.000,9092.000 9382.000,9092.000 9391.000,9092.000 9400.000,9092.000 9409.000,9092.000 9418.000,9092.000 9427.000,9092.000 9435.000,9092.000 9444.000,9092.000 9453.000,9092.000 9462.000,9092.000 9471.000,9092.000 9480.000,9092.000 9489.000,9092.000 9498.000,9092.000 9506.000,9092.000 9515.000,9092.000 9524.000,9092.000 9533.000,9092.000 9542.000,9092.000 9551.000,9092.000 9560.000,9092.000 9569.000,9092.000 9578.000,9092.000 9586.000,9092.000 9595.000,9092.000 9604.000,9092.000 9613.000,9092.000 9622.000,9092.000 9631.000,9092.000 9640.000,9092.000 9649.000,9092.000 9658.000,9092.000 9666.000,9092.000 9675.000,9092.000 9684.000,9092.000 9693.000,9092.000 9702.000,9092.000 9711.000,9092.000 9720.000,9092.000 9729.000,9092.000 9737.000,9092.000 9746.000,9092.000 9755.000,9092.000 9764.000,9092.000 9773.000,9092.000 9782.000,9092.000 9791.000,9092.000 9800.000,9092.000 9809.000,9092.000" fill="none" stroke="#0b1220" stroke-width="1.90" stroke-linecap="round" stroke-linejoin="round" vector-effect="non-scaling-stroke"/>
  <polyline points="9809.000,9092.000 9817.000,9092.000 9826.000,9092.000 9835.000,9092.000 9844.000,9092.000" fill="none" stroke="#0b1220" stroke-width="1.90" stroke-linecap="round" stroke-linejoin="round" vector-effect="non-scaling-stroke"/>
  <text x="746.000" y="9292.000" font-family="monospace" font-size="48.000" fill="#0b1220" font-weight="500">0</text>
  <text x="2327.000" y="9292.000" font-family="monospace" font-size="48.000" fill="#0b1220" font-weight="500">2000</text>
  <text x="4149.000" y="9292.000" font-family="monospace" font-size="48.000" fill="#0b1220" font-weight="500">4000</text>
  <text x="5970.000" y="9292.000" font-family="monospace" font-size="48.000" fill="#0b1220" font-weight="500">6000</text>
  <text x="7792.000" y="9292.000" font-family="monospace" font-size="48.000" fill="#0b1220" font-weight="500">8000</text>
  <text x="9533.000" y="9292.000" font-family="monospace" font-size="48.000" fill="#0b1220" font-weight="500">10000</text>
  <text x="546.000" y="9092.000" font-family="monospace" font-size="48.000" fill="#0b1220" font-weight="500">0</text>
  <text x="546.000" y="7471.000" font-family="monospace" font-size="48.000" fill="#0b1220" font-weight="500">2</text>
  <text x="546.000" y="5849.000" font-family="monospace" font-size="48.000" fill="#0b1220" font-weight="500">4</text>
  <text x="546.000" y="4228.000" font-family="monospace" font-size="48.000" fill="#0b1220" font-weight="500">6</text>
  <text x="546.000" y="2606.000" font-family="monospace" font-size="48.000" fill="#0b1220" font-weight="500">8</text>
  <text x="386.000" y="985.000" font-family="monospace" font-size="48.000" fill="#0b1220" font-weight="500">10 0</text>
  <text x="4259.000" y="9613.000" font-family="monospace" font-size="48.000" fill="#0b1220" font-weight="500">FREQUENCY (HZ)</text>
  <text x="24.000" y="5838.000" transform="rotate(-90.000 24.000 5838.000)" font-family="monospace" font-size="48.000" fill="#0b1220" font-weight="500">LINEAR GAIN</text>
  <text x="1959.000" y="24.000" font-family="monospace" font-size="72.000" fill="#0b1220" font-weight="500">FM DEMOD. DESIRED FUNCTION.</text>
</svg>
