<svg xmlns="http://www.w3.org/2000/svg" width="5508" height="3248" viewBox="0 0 5508.000 3248.000">
  <rect x="0" y="0" width="100%" height="100%" fill="#ffffff"/>
  <polyline points="484.000,374.000 5484.000,374.000 5484.000,2874.000 484.000,2874.000 484.000,374.000" fill="none" stroke="#0b1220" stroke-width="1.90" stroke-linecap="round" stroke-linejoin="round" vector-effect="non-scaling-stroke"/>
  <polyline points="484.000,374.000 484.000,2874.000" fill="none" stroke="#0b1220" stroke-width="1.90" stroke-linecap="round" stroke-linejoin="round" vector-effect="non-scaling-stroke"/>
  <polyline points="2984.000,374.000 2984.000,2874.000" fill="none" stroke="#0b1220" stroke-width="1.90" stroke-linecap="round" stroke-linejoin="round" vector-effect="non-scaling-stroke"/>
  <polyline points="5484.000,374.000 5484.000,2874.000" fill="none" stroke="#0b1220" stroke-width="1.90" stroke-linecap="round" stroke-linejoin="round" vector-effect="non-scaling-stroke"/>
  <polyline points="1734.000,349.000 1734.000,399.000" fill="none" stroke="#0b1220" stroke-width="1.90" stroke-linecap="round" stroke-linejoin="round" vector-effect="non-scaling-stroke"/>
  <polyline points="1734.000,2849.000 1734.000,2899.000" fill="none" stroke="#0b1220" stroke-width="1.90" stroke-linecap="round" stroke-linejoin="round" vector-effect="non-scaling-stroke"/>
  <polyline points="4234.000,349.000 4234.000,399.000" fill="none" stroke="#0b1220" stroke-width="1.90" stroke-linecap="round" stroke-linejoin="round" vector-effect="non-scaling-stroke"/>
  <polyline points="4234.000,2849.000 4234.000,2899.000" fill="none" stroke="#0b1220" stroke-width="1.90" stroke-linecap="round" stroke-linejoin="round" vector-effect="non-scaling-stroke"/>
  <polyline points="5484.000,2874.000 484.000,2874.000" fill="none" stroke="#0b1220" stroke-width="1.90" stroke-linecap="round" stroke-linejoin="round" vector-effect="non-scaling-stroke"/>
  <polyline points="5484.000,2516.000 484.000,2516.000" fill="none" stroke="#0b1220" stroke-width="1.90" stroke-linecap="round" stroke-linejoin="round" vector-effect="non-scaling-stroke"/>
  <polyline points="5484.000,2159.000 484.000,2159.000" fill="none" stroke="#0b1220" stroke-width="1.90" stroke-linecap="round" stroke-linejoin="round" vector-effect="non-scaling-stroke"/>
  <polyline points="5484.000,1802.000 484.000,1802.000" fill="none" stroke="#0b1220" stroke-width="1.90" stroke-linecap="round" stroke-linejoin="round" vector-effect="non-scaling-stroke"/>
  <polyline points="5484.000,1445.000 484.000,1445.000" fill="none" stroke="#0b1220" stroke-width="1.90" stroke-linecap="round" stroke-linejoin="round" vector-effect="non-scaling-stroke"/>
  <polyline points="5484.000,1088.000 484.000,1088.000" fill="none" stroke="#0b1220" stroke-width="1.90" stroke-linecap="round" stroke-linejoin="round" vector-effect="non-scaling-stroke"/>
  <polyline points="5484.000,731.000 484.000,731.000" fill="none" stroke="#0b1220" stroke-width="1.90" stroke-linecap="round" stroke-linejoin="round" vector-effect="non-scaling-stroke"/>
  <polyline points="5484.000,374.000 484.000,374.000" fill="none" stroke="#0b1220" stroke-width="1.90" stroke-linecap="round" stroke-linejoin="round" vector-effect="non-scaling-stroke"/>
  <polyline points="484.000,2190.000 494.000,2193.000 504.000,2202.000 513.000,2214.000 523.000,2229.000 533.000,2243.000 543.000,2254.000 552.000,2261.000 562.000,2262.000 572.000,2256.000 582.000,2240.000 591.000,2217.000 601.000,2185.000 611.000,2148.000 621.000,2111.000 630.000,2079.000 640.000,2061.000 650.000,2062.000 660.000,2080.000 670.000,2108.000 679.000,2138.000 689.000,2161.000 699.000,2172.000 709.000,2168.000 718.000,2145.000 728.000,2099.000 738.000,2024.000 748.000,1911.000 757.000,1742.000 767.000,1475.000 777.000,945.000 787.000,393.000 797.000,1287.000 806.000,1622.000 816.000,1816.000 826.000,1941.000 836.000,2022.000 845.000,2072.000 855.000,2100.000 865.000,2113.000 875.000,2119.000 884.000,2125.000 894.000,2138.000 904.000,2159.000 914.000,2188.000 923.000,2217.000 933.000,2242.000 943.000,2258.000 953.000,2258.000 963.000,2242.000 972.000,2204.000 982.000,2142.000 992.000,2048.000 1002.000,1911.000 1011.000,1706.000 1021.000,1367.000 1031.000,506.000 1041.000,962.000 1050.000,1509.000 1060.000,1783.000 1070.000,1959.000 1080.000,2083.000 1089.000,2173.000 1099.000,2238.000 1109.000,2283.000 1119.000,2311.000 1129.000,2322.000 1138.000,2317.000 1148.000,2296.000 1158.000,2259.000 1168.000,2207.000 1177.000,2143.000 1187.000,2075.000 1197.000,2020.000 1207.000,1999.000 1216.000,2021.000 1226.000,2073.000 1236.000,2134.000 1246.000,2190.000 1255.000,2234.000 1265.000,2264.000 1275.000,2282.000 1285.000,2289.000 1295.000,2287.000 1304.000,2278.000 1314.000,2264.000 1324.000,2247.000 1334.000,2227.000 1343.000,2209.000 1353.000,2195.000 1363.000,2192.000 1373.000,2206.000 1382.000,2238.000 1392.000,2285.000 1402.000,2338.000 1412.000,2387.000 1422.000,2427.000 1431.000,2451.000 1441.000,2458.000 1451.000,2443.000" fill="none" stroke="#0b1220" stroke-width="1.90" stroke-linecap="round" stroke-linejoin="round" vector-effect="non-scaling-stroke"/>
  <polyline points="1451.000,2443.000 1461.000,2405.000 1470.000,2341.000 1480.000,2252.000 1490.000,2143.000 1500.000,2046.000 1509.000,2018.000 1519.000,2083.000 1529.000,2187.000 1539.000,2281.000 1548.000,2350.000 1558.000,2388.000 1568.000,2397.000 1578.000,2378.000 1588.000,2333.000 1597.000,2265.000 1607.000,2188.000 1617.000,2124.000 1627.000,2107.000 1636.000,2140.000 1646.000,2196.000 1656.000,2245.000 1666.000,2273.000 1675.000,2272.000 1685.000,2241.000 1695.000,2180.000 1705.000,2099.000 1714.000,2026.000 1724.000,2013.000 1734.000,2080.000 1744.000,2183.000 1754.000,2279.000 1763.000,2351.000 1773.000,2394.000 1783.000,2409.000 1793.000,2397.000 1802.000,2360.000 1812.000,2302.000 1822.000,2235.000 1832.000,2180.000 1841.000,2163.000 1851.000,2193.000 1861.000,2249.000 1871.000,2306.000 1880.000,2348.000 1890.000,2371.000 1900.000,2374.000 1910.000,2358.000 1920.000,2330.000 1929.000,2295.000 1939.000,2265.000 1949.000,2248.000 1959.000,2248.000 1968.000,2259.000 1978.000,2272.000 1988.000,2279.000 1998.000,2276.000 2007.000,2260.000 2017.000,2236.000 2027.000,2208.000 2037.000,2184.000 2047.000,2171.000 2056.000,2169.000 2066.000,2173.000 2076.000,2176.000 2086.000,2171.000 2095.000,2157.000 2105.000,2137.000 2115.000,2123.000 2125.000,2129.000 2134.000,2165.000 2144.000,2224.000 2154.000,2290.000 2164.000,2350.000 2173.000,2395.000 2183.000,2420.000 2193.000,2425.000 2203.000,2408.000 2213.000,2370.000 2222.000,2314.000 2232.000,2249.000 2242.000,2190.000 2252.000,2161.000 2261.000,2173.000 2271.000,2215.000 2281.000,2264.000 2291.000,2302.000 2300.000,2321.000 2310.000,2318.000 2320.000,2292.000 2330.000,2245.000 2339.000,2182.000 2349.000,2115.000 2359.000,2066.000 2369.000,2056.000 2379.000,2087.000 2388.000,2139.000 2398.000,2191.000 2408.000,2230.000 2418.000,2254.000" fill="none" stroke="#0b1220" stroke-width="1.90" stroke-linecap="round" stroke-linejoin="round" vector-effect="non-scaling-stroke"/>
  <polyline points="2418.000,2254.000 2427.000,2263.000 2437.000,2259.000 2447.000,2248.000 2457.000,2233.000 2466.000,2220.000 2476.000,2210.000 2486.000,2204.000 2496.000,2198.000 2505.000,2191.000 2515.000,2179.000 2525.000,2163.000 2535.000,2146.000 2545.000,2131.000 2554.000,2124.000 2564.000,2125.000 2574.000,2132.000 2584.000,2139.000 2593.000,2141.000 2603.000,2133.000 2613.000,2112.000 2623.000,2084.000 2632.000,2058.000 2642.000,2054.000 2652.000,2085.000 2662.000,2150.000 2672.000,2231.000 2681.000,2310.000 2691.000,2376.000 2701.000,2425.000 2711.000,2454.000 2720.000,2463.000 2730.000,2451.000 2740.000,2418.000 2750.000,2362.000 2759.000,2286.000 2769.000,2193.000 2779.000,2099.000 2789.000,2038.000 2798.000,2041.000 2808.000,2098.000 2818.000,2172.000 2828.000,2237.000 2838.000,2283.000 2847.000,2308.000 2857.000,2312.000 2867.000,2297.000 2877.000,2267.000 2886.000,2229.000 2896.000,2192.000 2906.000,2170.000 2916.000,2171.000 2925.000,2195.000 2935.000,2233.000 2945.000,2273.000 2955.000,2308.000 2964.000,2333.000 2974.000,2346.000 2984.000,2349.000 2994.000,2342.000 3004.000,2327.000 3013.000,2306.000 3023.000,2281.000 3033.000,2254.000 3043.000,2226.000 3052.000,2198.000 3062.000,2172.000 3072.000,2149.000 3082.000,2133.000 3091.000,2127.000 3101.000,2133.000 3111.000,2152.000 3121.000,2178.000 3130.000,2208.000 3140.000,2235.000 3150.000,2255.000 3160.000,2267.000 3170.000,2270.000 3179.000,2263.000 3189.000,2250.000 3199.000,2233.000 3209.000,2217.000 3218.000,2207.000 3228.000,2204.000 3238.000,2209.000 3248.000,2219.000 3257.000,2231.000 3267.000,2242.000 3277.000,2251.000 3287.000,2258.000 3297.000,2265.000 3306.000,2273.000 3316.000,2284.000 3326.000,2297.000 3336.000,2310.000 3345.000,2322.000 3355.000,2329.000 3365.000,2330.000 3375.000,2324.000 3384.000,2311.000" fill="none" stroke="#0b1220" stroke-width="1.90" stroke-linecap="round" stroke-linejoin="round" vector-effect="non-scaling-stroke"/>
  <polyline points="3384.000,2311.000 3394.000,2293.000 3404.000,2274.000 3414.000,2257.000 3423.000,2248.000 3433.000,2248.000 3443.000,2256.000 3453.000,2269.000 3463.000,2282.000 3472.000,2291.000 3482.000,2296.000 3492.000,2293.000 3502.000,2285.000 3511.000,2273.000 3521.000,2258.000 3531.000,2241.000 3541.000,2223.000 3550.000,2205.000 3560.000,2186.000 3570.000,2167.000 3580.000,2152.000 3589.000,2146.000 3599.000,2157.000 3609.000,2190.000 3619.000,2241.000 3629.000,2301.000 3638.000,2363.000 3648.000,2419.000 3658.000,2465.000 3668.000,2497.000 3677.000,2516.000 3687.000,2520.000 3697.000,2509.000 3707.000,2484.000 3716.000,2445.000 3726.000,2393.000 3736.000,2333.000 3746.000,2269.000 3755.000,2211.000 3765.000,2170.000 3775.000,2153.000 3785.000,2158.000 3795.000,2175.000 3804.000,2194.000 3814.000,2209.000 3824.000,2217.000 3834.000,2218.000 3843.000,2214.000 3853.000,2208.000 3863.000,2204.000 3873.000,2206.000 3882.000,2213.000 3892.000,2224.000 3902.000,2236.000 3912.000,2244.000 3922.000,2245.000 3931.000,2238.000 3941.000,2223.000 3951.000,2203.000 3961.000,2182.000 3970.000,2171.000 3980.000,2176.000 3990.000,2198.000 4000.000,2234.000 4009.000,2273.000 4019.000,2306.000 4029.000,2327.000 4039.000,2332.000 4048.000,2319.000 4058.000,2286.000 4068.000,2232.000 4078.000,2160.000 4088.000,2080.000 4097.000,2014.000 4107.000,1996.000 4117.000,2037.000 4127.000,2113.000 4136.000,2192.000 4146.000,2259.000 4156.000,2310.000 4166.000,2346.000 4175.000,2369.000 4185.000,2383.000 4195.000,2391.000 4205.000,2397.000 4214.000,2402.000 4224.000,2405.000 4234.000,2406.000 4244.000,2402.000 4254.000,2389.000 4263.000,2367.000 4273.000,2333.000 4283.000,2291.000 4293.000,2243.000 4302.000,2196.000 4312.000,2159.000 4322.000,2139.000 4332.000,2134.000 4341.000,2138.000 4351.000,2142.000" fill="none" stroke="#0b1220" stroke-width="1.90" stroke-linecap="round" stroke-linejoin="round" vector-effect="non-scaling-stroke"/>
  <polyline points="4351.000,2142.000 4361.000,2141.000 4371.000,2131.000 4380.000,2118.000 4390.000,2107.000 4400.000,2109.000 4410.000,2127.000 4420.000,2158.000 4429.000,2194.000 4439.000,2224.000 4449.000,2242.000 4459.000,2245.000 4468.000,2232.000 4478.000,2204.000 4488.000,2171.000 4498.000,2143.000 4507.000,2137.000 4517.000,2159.000 4527.000,2202.000 4537.000,2251.000 4547.000,2293.000 4556.000,2321.000 4566.000,2333.000 4576.000,2329.000 4586.000,2312.000 4595.000,2286.000 4605.000,2259.000 4615.000,2240.000 4625.000,2234.000 4634.000,2242.000 4644.000,2256.000 4654.000,2267.000 4664.000,2271.000 4673.000,2264.000 4683.000,2245.000 4693.000,2218.000 4703.000,2189.000 4713.000,2164.000 4722.000,2151.000 4732.000,2147.000 4742.000,2147.000 4752.000,2144.000 4761.000,2133.000 4771.000,2113.000 4781.000,2089.000 4791.000,2074.000 4800.000,2081.000 4810.000,2115.000 4820.000,2169.000 4830.000,2225.000 4839.000,2270.000 4849.000,2297.000 4859.000,2303.000 4869.000,2286.000 4879.000,2250.000 4888.000,2199.000 4898.000,2149.000 4908.000,2119.000 4918.000,2126.000 4927.000,2161.000 4937.000,2204.000 4947.000,2234.000 4957.000,2241.000 4966.000,2219.000 4976.000,2167.000 4986.000,2090.000 4996.000,2018.000 5005.000,2008.000 5015.000,2088.000 5025.000,2208.000 5035.000,2319.000 5045.000,2401.000 5054.000,2451.000 5064.000,2468.000 5074.000,2452.000 5084.000,2400.000 5093.000,2311.000 5103.000,2190.000 5113.000,2069.000 5123.000,2039.000 5132.000,2137.000 5142.000,2275.000 5152.000,2390.000 5162.000,2468.000 5172.000,2512.000 5181.000,2521.000 5191.000,2498.000 5201.000,2442.000 5211.000,2355.000 5220.000,2242.000 5230.000,2129.000 5240.000,2074.000 5250.000,2115.000 5259.000,2204.000 5269.000,2287.000 5279.000,2345.000 5289.000,2374.000 5298.000,2378.000 5308.000,2362.000 5318.000,2336.000" fill="none" stroke="#0b1220" stroke-width="1.90" stroke-linecap="round" stroke-linejoin="round" vector-effect="non-scaling-stroke"/>
  <polyline points="5318.000,2336.000 5328.000,2311.000 5338.000,2301.000 5347.000,2309.000 5357.000,2331.000 5367.000,2352.000 5377.000,2364.000 5386.000,2358.000 5396.000,2333.000 5406.000,2291.000 5416.000,2239.000 5425.000,2196.000 5435.000,2182.000 5445.000,2205.000 5455.000,2249.000 5464.000,2296.000 5474.000,2328.000 5484.000,2339.000" fill="none" stroke="#0b1220" stroke-width="1.90" stroke-linecap="round" stroke-linejoin="round" vector-effect="non-scaling-stroke"/>
  <text x="174.000" y="3084.000" font-family="monospace" font-size="24.000" fill="#0b1220" font-weight="500">    0</text>
  <text x="2674.000" y="3084.000" font-family="monospace" font-size="24.000" fill="#0b1220" font-weight="500">    5</text>
  <text x="5174.000" y="3084.000" font-family="monospace" font-size="24.000" fill="#0b1220" font-weight="500">   10</text>
  <text x="24.000" y="2924.000" font-family="monospace" font-size="24.000" fill="#0b1220" font-weight="500">    5</text>
  <text x="24.000" y="2566.000" font-family="monospace" font-size="24.000" fill="#0b1220" font-weight="500">   10</text>
  <text x="24.000" y="2209.000" font-family="monospace" font-size="24.000" fill="#0b1220" font-weight="500">   15</text>
  <text x="24.000" y="1852.000" font-family="monospace" font-size="24.000" fill="#0b1220" font-weight="500">   20</text>
  <text x="24.000" y="1495.000" font-family="monospace" font-size="24.000" fill="#0b1220" font-weight="500">   25</text>
  <text x="24.000" y="1138.000" font-family="monospace" font-size="24.000" fill="#0b1220" font-weight="500">   30</text>
  <text x="24.000" y="781.000" font-family="monospace" font-size="24.000" fill="#0b1220" font-weight="500">   35</text>
  <text x="24.000" y="424.000" font-family="monospace" font-size="24.000" fill="#0b1220" font-weight="500">   40</text>
  <text x="524.000" y="3224.000" font-family="monospace" font-size="24.000" fill="#0b1220" font-weight="500">File: signal.spec</text>
  <text x="2964.000" y="3224.000" font-family="monospace" font-size="24.000" fill="#0b1220" font-weight="500">kHz</text>
  <text x="59.000" y="1424.000" font-family="monospace" font-size="24.000" fill="#0b1220" font-weight="500">dB</text>
  <text x="4424.000" y="24.000" font-family="monospace" font-size="24.000" fill="#0b1220" font-weight="500">24 Aug 1987 13:11</text>
</svg>
